PathFileType	4	(X/Y/Z)	s04c0402.trc
DataRate	CameraRate	NumFrames	NumMarkers	Units	OrigDataRate	OrigDataStartFrame	OrigNumFrames
200	200	6	50	mm	200	1750	2000
Frame#	Time	racr			lacr			c7			jug			rlel			rdr			llel			ldr			s2			lic			ric			lasi			rasi			rpsi			lpsi			rgt			lgt			rth1			rth2			rth3			rth4			rlfc			rmfc			rsh1			rsh2			rsh3			rsh4			rlmal			rmmal			rcal			rtoe			rmt5			lth1			lth2			lth4			lth3			llfc			lmfc			lsh1			lsh2			lsh3			lsh4			llmal			lmmal			lcal			ltoe			lmt5			SBIKE			LBIKE			RBIKE			
		X1	Y1	Z1	X2	Y2	Z2	X3	Y3	Z3	X4	Y4	Z4	X5	Y5	Z5	X6	Y6	Z6	X7	Y7	Z7	X8	Y8	Z8	X9	Y9	Z9	X10	Y10	Z10	X11	Y11	Z11	X12	Y12	Z12	X13	Y13	Z13	X14	Y14	Z14	X15	Y15	Z15	X16	Y16	Z16	X17	Y17	Z17	X18	Y18	Z18	X19	Y19	Z19	X20	Y20	Z20	X21	Y21	Z21	X22	Y22	Z22	X23	Y23	Z23	X24	Y24	Z24	X25	Y25	Z25	X26	Y26	Z26	X27	Y27	Z27	X28	Y28	Z28	X29	Y29	Z29	X30	Y30	Z30	X31	Y31	Z31	X32	Y32	Z32	X33	Y33	Z33	X34	Y34	Z34	X35	Y35	Z35	X36	Y36	Z36	X37	Y37	Z37	X38	Y38	Z38	X39	Y39	Z39	X40	Y40	Z40	X41	Y41	Z41	X42	Y42	Z42	X43	Y43	Z43	X44	Y44	Z44	X45	Y45	Z45	X46	Y46	Z46	X47	Y47	Z47	X48	Y48	Z48	X49	Y49	Z49	X50	Y50	Z50	
1750	8.7500	736.159582	1296.560171	-161.074213	760.028153	1251.989214	-469.977905	761.643682	1337.199848	-327.739796	704.685348	1196.204177	-313.405650	525.441018	1140.491999	31.116605	691.398240	941.713711	-84.397385	534.882661	1116.696226	-618.128395	679.728814	931.454708	-497.275173	158.090517	1224.430942	-316.770758	308.437591	1200.751102	-469.753889	312.882101	1195.511718	-149.490248	341.111549	1153.960958	-427.993817	336.958530	1131.544368	-196.269345	196.687964	1261.419954	-271.374512	196.770260	1265.595214	-346.305797	242.437988	1142.830238	-135.782100	277.992304	1136.036955	-505.324105	291.657710	988.247070	-105.242034	329.131702	908.851905	-113.520292	326.267909	823.462799	-113.644786	360.894270	916.940994	-131.553690	345.647877	677.241949	-132.234192	323.674392	656.586358	-243.438771	276.728771	567.855551	-107.729786	255.746626	479.692035	-122.069107	194.437690	419.939309	-129.815803	286.242940	467.664903	-143.224232	131.351752	283.156548	-135.934767	156.662480	282.750752	-219.346954	63.788434	287.831210	-173.442034	319.886525	128.311069	-163.121712	250.058430	141.412076	-108.051967	335.265745	1075.971440	-500.792689	416.793511	1045.568063	-498.022848	436.079699	1073.745035	-484.145343	473.293590	977.949739	-503.596868	580.725669	865.239814	-475.862174	597.454333	843.137763	-360.322839	506.478410	783.388295	-493.550784	448.761508	722.050310	-469.288910	365.288221	690.947313	-468.827352	464.789699	705.506996	-437.821307	238.400448	617.438613	-459.956362	236.098221	627.137560	-370.033727	155.841163	644.718833	-419.009936	396.653397	461.953834	-412.902506	319.613192	471.055993	-477.663614	-185.275037	932.858869	-286.433825	-17.525904	79.220741	-485.435514	-17.486098	79.313561	-84.792654	
1751	8.7550	734.401304	1297.189420	-160.579998	758.754768	1253.465496	-469.429485	759.923189	1338.330069	-327.291806	703.129719	1197.226178	-313.467805	524.194690	1139.961955	31.161414	691.180569	941.898498	-84.261683	534.655324	1116.692475	-618.199358	680.177822	931.674578	-497.461879	156.380506	1225.480597	-317.673090	308.134752	1201.362053	-470.746767	310.522333	1197.180811	-149.552588	339.772095	1154.674711	-428.020744	334.957404	1133.001270	-195.884066	194.808611	1262.377384	-272.382514	195.127757	1266.493818	-347.156730	240.255904	1144.508144	-136.154944	276.837571	1136.484226	-505.571698	289.521825	989.685226	-105.096238	327.056600	910.153178	-113.175503	324.149560	824.792787	-113.389753	358.880250	918.288282	-131.232365	343.193413	678.507912	-131.910175	321.385219	657.926889	-243.129818	273.403083	569.604682	-107.450721	251.973987	481.782439	-121.530880	190.245174	422.102631	-129.752082	282.453999	469.360644	-142.709681	126.785760	285.543114	-136.051891	152.174663	285.144516	-219.305955	58.888131	290.845877	-173.259226	313.661826	128.812927	-162.957803	243.970147	142.676898	-107.958569	333.740828	1076.743380	-500.740035	415.554306	1047.085150	-497.986322	434.637273	1075.639278	-484.589546	472.467764	979.995555	-503.557187	581.567521	869.084364	-475.246256	598.952026	847.565346	-359.544214	508.999758	786.224269	-493.185187	452.502080	723.770625	-469.180366	369.384979	691.398060	-468.625115	468.670547	707.668184	-437.628881	243.519473	615.619140	-459.792115	241.304368	625.228331	-369.513897	160.632737	642.185225	-418.921012	402.841997	461.356009	-413.188480	325.835358	469.886640	-477.636917	-185.267551	932.867885	-286.425953	-17.542675	79.227338	-485.436785	-17.480939	79.320347	-84.792370	
1752	8.7600	732.668223	1297.859928	-159.975530	757.553936	1254.999374	-468.827552	758.189861	1339.514540	-326.766481	701.696536	1198.250768	-313.436154	523.043599	1139.463482	31.248787	690.968954	942.138918	-84.210963	534.497457	1116.798012	-618.148275	680.389166	931.921626	-497.491079	154.680838	1226.647408	-318.669558	306.952592	1202.042122	-470.800739	307.943365	1199.380238	-149.298087	338.417249	1155.290960	-428.036272	332.977316	1134.424798	-195.520904	193.078007	1263.620836	-273.343743	193.486424	1267.633054	-348.179840	237.861931	1146.753995	-135.897648	275.657183	1136.978810	-505.795529	287.412001	991.176619	-104.898861	325.073052	911.597137	-112.818120	322.221264	826.304530	-113.107790	356.896436	919.808454	-130.848889	340.980099	679.967584	-131.454267	319.546281	659.480463	-242.795659	270.307741	571.410572	-107.162759	248.359035	483.320024	-121.529560	186.422008	424.467798	-129.637765	279.023480	471.078006	-142.322744	122.467699	288.169703	-136.067802	148.025125	287.634259	-219.218929	54.897773	294.043324	-173.541772	307.926268	129.407940	-162.842045	238.334351	143.931979	-107.856353	332.246443	1077.540245	-500.704065	414.239849	1048.711256	-498.022482	433.193612	1077.410042	-484.946883	471.561390	981.929575	-503.368907	582.453629	872.640966	-473.563540	599.976017	851.535480	-358.617957	511.065523	788.754041	-492.759052	455.596052	725.210097	-468.862033	372.987861	691.702996	-468.473227	472.048054	709.472318	-437.367386	248.504680	614.285049	-460.094106	246.052276	623.085778	-369.094016	164.931868	639.552837	-418.728300	408.536431	460.222150	-412.858435	331.671622	468.673937	-477.613585	-185.286664	932.886982	-286.444877	-17.541342	79.228479	-485.433084	-17.483388	79.329726	-84.797934	
1753	8.7650	730.929654	1298.626115	-159.262654	756.370620	1256.571014	-468.057086	756.492462	1340.778729	-326.185569	700.260971	1199.372682	-313.337727	521.835832	1138.929028	31.356742	690.756954	942.481231	-84.176715	534.352169	1117.076595	-618.045819	679.718565	931.502328	-497.246618	152.988928	1227.979051	-319.690828	305.738264	1202.646871	-470.808974	305.751297	1201.197509	-149.591268	337.041972	1155.880514	-427.984613	331.052936	1135.972919	-195.078070	191.373828	1265.008245	-274.403283	191.897255	1268.825497	-349.314387	235.585332	1148.697884	-136.473257	274.468718	1137.543205	-505.974431	285.232872	992.780748	-104.792999	323.113569	913.372219	-112.496866	320.302229	827.974148	-112.827505	355.044857	921.601836	-130.353876	339.011988	681.547727	-130.944217	318.096797	661.113483	-242.435559	267.530873	573.521704	-106.856003	245.131844	485.541053	-121.229483	182.958160	426.851762	-129.535008	275.883564	472.928366	-141.862021	118.579787	290.826991	-136.122907	144.409956	290.092181	-219.188645	51.347962	297.239987	-173.938483	302.534690	130.182141	-162.643397	233.048692	145.429301	-107.829354	330.736868	1078.431882	-500.738126	412.987329	1050.209004	-497.980724	431.331137	1079.155611	-485.758018	470.687966	983.810602	-503.057756	582.501143	875.909655	-472.689940	600.534511	855.132884	-357.589770	512.584727	790.954230	-492.268123	458.343687	726.718915	-468.864444	376.065213	691.674042	-468.162671	474.766051	711.230315	-436.503764	252.901540	612.095087	-460.159931	250.329392	620.962007	-368.537621	168.843421	636.688923	-418.642722	413.980292	459.375197	-412.766464	337.175243	467.275247	-477.529208	-185.306562	932.894744	-286.476239	-17.539800	79.246599	-485.434226	-17.486638	79.346027	-84.803871	
1754	8.7700	729.161890	1299.450282	-158.660294	755.325413	1258.297375	-467.263877	754.828330	1342.141517	-325.515413	698.886370	1200.574686	-313.247573	520.631665	1138.352716	31.502328	690.544273	942.893496	-84.220066	535.082454	1116.401896	-617.192828	679.727349	931.715009	-497.198103	151.288014	1229.375186	-320.755191	305.736144	1203.430160	-471.812916	303.608429	1203.083899	-149.946685	335.647766	1156.568062	-427.999313	329.148725	1137.777236	-194.591530	189.681507	1266.431809	-275.580552	190.339389	1270.125737	-350.429859	233.398990	1150.699841	-137.143557	273.225212	1138.299703	-506.174410	283.024985	994.478106	-104.749302	321.161443	915.119697	-112.039022	318.613430	829.785266	-112.490554	353.200033	923.425740	-129.729952	337.232206	683.224087	-130.413773	317.038583	662.771929	-242.013161	264.665013	575.610732	-106.540770	242.255107	487.783534	-120.842268	179.798386	429.362131	-129.342670	273.027388	475.039870	-141.169061	115.152560	293.514085	-136.135061	141.096187	292.581534	-218.979350	48.116366	300.548492	-174.243746	297.502792	130.958647	-162.498579	228.163203	146.984079	-107.689350	329.274685	1079.420850	-500.787492	411.692109	1051.682637	-497.888804	429.862495	1080.811242	-485.813764	470.927121	985.816379	-501.079844	582.216224	878.742098	-471.712800	600.499501	858.394219	-356.502552	513.630043	792.864130	-491.704112	460.369769	727.605319	-468.396728	378.598409	691.503275	-467.780698	476.949641	712.336402	-436.195441	256.501549	609.910017	-459.926559	254.407259	618.554120	-367.737667	172.152444	633.666935	-418.579597	418.994683	458.567507	-412.700751	342.140760	465.988122	-477.530393	-185.315748	932.912613	-286.509425	-17.544890	79.250517	-485.427593	-17.492303	79.373659	-84.796582	
1755	8.7750	727.393201	1300.204231	-157.931388	754.241592	1260.024109	-466.341534	753.105978	1343.554894	-324.795414	697.590041	1201.771534	-313.159544	519.540223	1137.829935	31.643590	690.315387	943.223081	-84.275571	534.670798	1117.118513	-616.884838	679.773133	931.784922	-497.044482	149.613995	1230.897987	-321.813484	304.465015	1204.230169	-471.797547	301.488612	1204.990248	-150.334262	334.234611	1157.327851	-428.034321	327.253295	1139.583159	-194.131149	188.092447	1267.866469	-276.740444	188.576664	1271.745111	-352.203497	231.329294	1152.712478	-137.891998	272.160986	1139.456473	-506.750714	280.775098	996.232968	-104.737088	319.248255	916.994251	-111.654606	316.844377	831.609692	-112.052455	351.373789	925.418456	-129.001305	335.676669	684.936957	-129.818244	316.320483	664.617358	-241.556120	262.339803	577.806107	-106.154878	239.653228	490.126192	-120.410036	177.009898	431.889785	-129.140179	270.443919	477.124894	-140.643013	112.077403	296.308172	-136.062368	138.140000	295.225627	-218.865375	45.190644	303.761010	-174.356742	292.920126	131.716421	-162.392405	223.690004	148.494902	-107.641941	327.850121	1080.638936	-500.828284	409.741610	1053.643005	-498.262368	428.401420	1082.496842	-485.589253	469.874546	987.716963	-500.720814	581.622421	881.176091	-470.653991	599.914335	861.210683	-355.542851	514.106487	794.347579	-491.190487	461.895888	728.305943	-467.923537	380.556297	691.041455	-467.346478	478.614006	713.246010	-435.662615	259.579058	607.639015	-459.729532	257.781040	616.164013	-367.243982	174.971941	630.565818	-418.454192	423.573707	457.874054	-412.648073	346.767267	464.636379	-477.573848	-185.347387	932.918331	-286.506275	-17.533761	79.271472	-485.444414	-17.471823	79.366492	-84.793307	
